{
	"asset": {
		"generator": "Khronos glTF Blender I/O v4.1.63",
		"version": "2.0"
	},
	"scene": 0,
	"scenes": [
		{
			"name": "Scene",
			"nodes": [0]
		}
	],
	"nodes": [
		{
			"mesh": 0,
			"name": "Text",
			"rotation": [0.5, 0.5, -0.5, 0.4999999701976776],
			"scale": [1.600000023841858, 1.600000023841858, 1.600000023841858]
		}
	],
	"materials": [
		{
			"doubleSided": true,
			"name": "Material",
			"pbrMetallicRoughness": {
				"baseColorTexture": {
					"index": 0
				},
				"metallicRoughnessTexture": {
					"index": 1
				}
			}
		}
	],
	"meshes": [
		{
			"name": "Text.001",
			"primitives": [
				{
					"attributes": {
						"POSITION": 0,
						"NORMAL": 1,
						"TEXCOORD_0": 2
					},
					"indices": 3,
					"material": 0
				}
			]
		}
	],
	"textures": [
		{
			"sampler": 0,
			"source": 0
		},
		{
			"sampler": 0,
			"source": 1
		}
	],
	"images": [
		{
			"mimeType": "image/png",
			"name": "HTML_rgb.png",
			"uri": "./textures/HTML_rgb.png"
		},
		{
			"mimeType": "image/png",
			"name": "HTML_ORM.png",
			"uri": "./textures/HTML_ORM.png"
		}
	],
	"accessors": [
		{
			"bufferView": 0,
			"componentType": 5126,
			"count": 394,
			"max": [1.8645707368850708, 0.08094730973243713, 0.774088978767395],
			"min": [-1.9322237968444824, -0.08239995688199997, -2.0993590354919434],
			"type": "VEC3"
		},
		{
			"bufferView": 1,
			"componentType": 5126,
			"count": 394,
			"type": "VEC3"
		},
		{
			"bufferView": 2,
			"componentType": 5126,
			"count": 394,
			"type": "VEC2"
		},
		{
			"bufferView": 3,
			"componentType": 5123,
			"count": 744,
			"type": "SCALAR"
		}
	],
	"bufferViews": [
		{
			"buffer": 0,
			"byteLength": 4728,
			"byteOffset": 0,
			"target": 34962
		},
		{
			"buffer": 0,
			"byteLength": 4728,
			"byteOffset": 4728,
			"target": 34962
		},
		{
			"buffer": 0,
			"byteLength": 3152,
			"byteOffset": 9456,
			"target": 34962
		},
		{
			"buffer": 0,
			"byteLength": 1488,
			"byteOffset": 12608,
			"target": 34963
		}
	],
	"samplers": [
		{
			"magFilter": 9729,
			"minFilter": 9987
		}
	],
	"buffers": [
		{
			"byteLength": 14096,
			"uri": "HTML3DIcon.bin"
		}
	]
}
